<svg xmlns="http://www.w3.org/2000/svg" width="363.697" height="60.323"><g data-name="Group 77"><path data-name="Path 742" d="M86.154 1.174h-.44v-.88a18.714 18.714 0 0 0 2.789.146 14.513 14.513 0 0 0 2.2-.147c1.027 0 1.908-.147 2.935-.147a8.157 8.157 0 0 1 3.376.588 7.326 7.326 0 0 1 2.5 1.614 7.021 7.021 0 0 1 1.468 2.5 10.17 10.17 0 0 1 .44 2.935 11.173 11.173 0 0 1-.44 3.082 5.385 5.385 0 0 1-1.468 2.5 6.377 6.377 0 0 1-2.5 1.761 8.157 8.157 0 0 1-3.376.587 9.028 9.028 0 0 1-1.908-.147c-.734-.147-1.468-.147-2.2-.294a12.475 12.475 0 0 0-3.816 0v-.881h1.174a2.086 2.086 0 0 0 .881-.294c.294-.147.294-.44.294-.881V4.843a10.5 10.5 0 0 0-.147-2.5.653.653 0 0 0-.294-.881 3.158 3.158 0 0 0-1.468-.294zm3.963.147v10.567a2.987 2.987 0 0 0 .881 2.2 4.536 4.536 0 0 0 2.789.734 5.676 5.676 0 0 0 2.5-.587 5.541 5.541 0 0 0 1.761-1.468 8.967 8.967 0 0 0 1.027-2.055 12.927 12.927 0 0 0 .294-2.5 8.311 8.311 0 0 0-.44-2.642 7.443 7.443 0 0 0-1.321-2.348 7.226 7.226 0 0 0-2.2-1.468 5.956 5.956 0 0 0-2.794-.58h-.587l-1.913.147zm17.172 0V.294c.294 0 1.468.147 3.229.147s2.789-.147 3.229-.147v1.027h-1.027c-.587 0-.881.147-1.027.44a3.158 3.158 0 0 0-.294 1.468v7.779a10.538 10.538 0 0 0 .294 2.5 1.245 1.245 0 0 0 1.174 1.027h1.174v.881a23.811 23.811 0 0 0-3.376-.147 23.811 23.811 0 0 0-3.376.147v-1.032h1.174q1.321 0 1.321-1.761V4.4a9.719 9.719 0 0 0-.147-2.2c0-.587-.294-.881-.44-.881zm16.879-.587a2.207 2.207 0 0 0-1.614.587 2.357 2.357 0 0 0-.734 1.614 2.936 2.936 0 0 0 1.908 2.789l1.468.734a5.34 5.34 0 0 1 2.348 2.055 4.832 4.832 0 0 1 .881 2.789 4.9 4.9 0 0 1-.44 2.2 3.129 3.129 0 0 1-1.471 1.615 4.2 4.2 0 0 1-2.5.587 6.506 6.506 0 0 1-2.2-.44 14.621 14.621 0 0 1-1.614-.587v-1.761a11.864 11.864 0 0 0-.147-2.348h1.027v1.027a2.987 2.987 0 0 0 .881 2.2 3.084 3.084 0 0 0 2.055 1.027 3.507 3.507 0 0 0 2.055-.734 2.463 2.463 0 0 0 .881-2.055c0-1.321-.881-2.348-2.348-3.229l-1.757-1.025a4.578 4.578 0 0 1-2.642-4.11 4.243 4.243 0 0 1 .587-2.055 3.788 3.788 0 0 1 1.322-1.32A9.911 9.911 0 0 1 124.168 0a16.843 16.843 0 0 1 2.055.294h.881v2.935h-.881v-.147a2.865 2.865 0 0 0-.147-1.027 2.365 2.365 0 0 0-.587-1.027 4.285 4.285 0 0 0-1.321-.294zm11.3 2.789h-.881V.294c1.761.147 4.11.147 6.9.294 2.935 0 5.43-.147 7.339-.294v3.228h-.881V2.348c0-.294-.147-.44-.44-.587-.147-.147-.587-.147-1.027-.147h-3.524v9.834a6.623 6.623 0 0 0 .147 1.908 1.348 1.348 0 0 0 .587.881 3.683 3.683 0 0 0 1.468.294h.881v.881c-1.908-.147-3.376-.147-4.256-.147-.734 0-2.055 0-3.816.147v-1.028h1.174a3.158 3.158 0 0 0 1.468-.294c.147 0 .294-.294.294-.587a12.425 12.425 0 0 1 .147-1.908V1.614h-4.4c-.587 0-.881.147-1.027.44a2.931 2.931 0 0 0-.294 1.321c.142.001.142.001.142.147zm19.374-2.2V.294c.294 0 1.468.147 3.229.147S160.86.294 161.3.294v1.027h-1.027c-.587 0-.881.147-1.027.44a3.158 3.158 0 0 0-.294 1.468v7.779a10.538 10.538 0 0 0 .294 2.5 1.245 1.245 0 0 0 1.174 1.027h1.174v.881a23.811 23.811 0 0 0-3.376-.147 23.811 23.811 0 0 0-3.376.147v-1.032h1.172q1.321 0 1.321-1.761V4.4a9.718 9.718 0 0 0-.147-2.2c0-.587-.294-.881-.44-.881zM171.575.294l10.714 12.035-.44-9.687c0-.587 0-.881-.147-1.027a1.121 1.121 0 0 0-.734-.294h-1.614V.294a18.713 18.713 0 0 0 2.935.147c1.174 0 2.2-.147 3.082-.147v1.027h-1.174a1.241 1.241 0 0 0-.881.294 1.241 1.241 0 0 0-.294.881v13.355h-.587L170.841 2.642v9.247a7.65 7.65 0 0 0 .294 2.055 1.376 1.376 0 0 0 1.321.734h1.027v.881a19.7 19.7 0 0 0-3.082-.147 21.676 21.676 0 0 0-3.082.147v-1.175h.881c.587 0 .881-.147 1.027-.44a2.931 2.931 0 0 0 .294-1.321V2.642a2.274 2.274 0 0 0-.294-1.174 1.241 1.241 0 0 0-.881-.294h-1.032v-.88a12.906 12.906 0 0 0 2.055.294 10.71 10.71 0 0 0 2.206-.294zm27.593.881a8 8 0 0 0-3.229.734 4.974 4.974 0 0 0-2.2 2.055 5.292 5.292 0 0 0-.881 2.935 7.375 7.375 0 0 0 .881 3.522 6.782 6.782 0 0 0 2.5 2.5 9.032 9.032 0 0 0 3.376 1.027h.294a7.65 7.65 0 0 0 2.055-.294 2.766 2.766 0 0 0 1.321-.587 2.282 2.282 0 0 0 .881-1.174l.881-1.908.881.44-2.2 4.4c-.294.587-1.761 1.027-4.55 1.027a7.89 7.89 0 0 1-4.11-1.174 6.739 6.739 0 0 1-2.789-2.935 7.27 7.27 0 0 1-1.027-3.963 7.382 7.382 0 0 1 1.162-3.964 8.9 8.9 0 0 1 2.935-2.789A7.27 7.27 0 0 1 199.314 0a2.861 2.861 0 0 1 1.174.147 9.583 9.583 0 0 1 1.614.294 12.294 12.294 0 0 0 1.468.294c.294 0 .734.147 1.174.147v3.374h-.73a1.462 1.462 0 0 0-.147-.587c-.147-.294-.294-.734-.44-1.027a2.9 2.9 0 0 0-1.468-1.027 7.4 7.4 0 0 0-2.789-.44zm13.356 2.347h-.881V.294c1.908.147 4.11.147 6.9.294 2.935 0 5.43-.147 7.339-.294v3.228h-.881V2.348c0-.294-.147-.44-.44-.587-.147-.147-.587-.147-1.027-.147h-3.522v9.834a6.622 6.622 0 0 0 .147 1.908 1.348 1.348 0 0 0 .587.881 3.683 3.683 0 0 0 1.468.294h.881v.881c-1.908-.147-3.376-.147-4.256-.147-.734 0-2.055 0-3.816.147v-1.028h1.174a3.158 3.158 0 0 0 1.468-.294.787.787 0 0 0 .44-.587 12.425 12.425 0 0 1 .147-1.908V1.614h-4.4a1.143 1.143 0 0 0-1.027.44 2.931 2.931 0 0 0-.294 1.321v.147zm19.374-2.2V.294c.294 0 1.468.147 3.229.147s2.787-.147 3.228-.147v1.027h-1.027c-.587 0-.881.147-1.027.44a3.158 3.158 0 0 0-.294 1.468v7.779a10.539 10.539 0 0 0 .294 2.5 1.245 1.245 0 0 0 1.174 1.027h1.174v.881a38.894 38.894 0 0 0-6.751 0v-1.032h1.174q1.321 0 1.321-1.761V4.4a9.718 9.718 0 0 0-.147-2.2c0-.587-.294-.881-.44-.881zm20.988 11.448l3.522-9.54a2.681 2.681 0 0 0 .294-1.321c0-.44-.294-.734-1.027-.734h-1.027V.294a14.332 14.332 0 0 0 2.789.147c1.174 0 2.055-.147 2.642-.147v1.027h-.587a1.862 1.862 0 0 0-.881.147c-.147.147-.44.294-.44.587a7.2 7.2 0 0 1-.587 1.468 83.094 83.094 0 0 1-1.468 3.376c-.587 1.614-1.321 3.229-1.908 4.843s-1.174 3.082-1.468 3.963h-.881c-.294-.881-.734-1.908-1.174-3.082-.44-1.027-.881-2.2-1.321-3.376s-1.027-2.348-1.468-3.669a31.657 31.657 0 0 0-1.321-2.935 2.95 2.95 0 0 0-.587-1.174.887.887 0 0 0-.881-.44h-.44V.294c.587.147 1.614.147 3.082.294 1.174 0 2.055-.147 2.642-.147v1.027h-.734c-.44 0-.734 0-.881.147a2.026 2.026 0 0 0-.44.587 4.538 4.538 0 0 0 .294 1.174l4.256 9.393zm13.062-11.596v-.88c1.468.147 3.229.147 5.137.147s3.669-.147 5.284-.147l.147 3.376h-.881l-.147-.881a1.056 1.056 0 0 0-.587-1.027 2.931 2.931 0 0 0-1.321-.294h-3.229v5.724l3.669-.147a1.241 1.241 0 0 0 .881-.294 1.121 1.121 0 0 0 .294-.734v-.586h.881v1.614c0 1.027.147 2.055.147 2.789h-.881v-.881c0-.587-.44-.881-1.174-.881l-3.669-.147v3.963a2.861 2.861 0 0 0 .147 1.174.807.807 0 0 0 .44.734 2.121 2.121 0 0 0 1.027.294h2.5a1.554 1.554 0 0 0 1.615-.881 4.263 4.263 0 0 0 .44-2.055h.881l-.44 3.963c-2.348-.147-4.11-.147-5.137-.147-1.761 0-3.816.147-6.164.294v-.881h1.468c.587 0 1.027-.147 1.174-.44a3.157 3.157 0 0 0 .294-1.468V4.99a10.442 10.442 0 0 0-.147-2.348 2.766 2.766 0 0 0-.587-1.321c-.147-.147-.44-.147-1.174-.147h-.881z" fill="#757072"/></g><g data-name="Group 78"><path data-name="Path 743" d="M22.749 16.292a18.556 18.556 0 0 0-9.1 2.2 15.836 15.836 0 0 0-6.164 5.871 17.985 17.985 0 0 0-2.5 8.366 19.913 19.913 0 0 0 2.642 9.98 19.084 19.084 0 0 0 7.045 7.045 20 20 0 0 0 9.54 2.789 1.1 1.1 0 0 1 .734-.147 28.624 28.624 0 0 0 5.724-.587 12.114 12.114 0 0 0 3.963-1.761 11.091 11.091 0 0 0 2.642-3.522l2.5-5.284 2.348 1.321-6.458 12.77c-.881 1.761-5.284 2.789-13.209 2.789a24.221 24.221 0 0 1-11.742-3.229 21.666 21.666 0 0 1-7.926-8.366A23.033 23.033 0 0 1 0 35.225a19.819 19.819 0 0 1 3.229-11.154 24.47 24.47 0 0 1 8.366-8.072A21.672 21.672 0 0 1 22.9 13.063a28.5 28.5 0 0 1 3.522.294c1.174.147 2.642.44 4.55.881s3.229.587 4.256.734a21.985 21.985 0 0 0 3.229.294V25.1h-2.2c0-.147-.147-.734-.294-1.761a7.406 7.406 0 0 0-1.468-3.082 8.6 8.6 0 0 0-3.967-2.794 24.106 24.106 0 0 0-7.779-1.174zM70.89 42.563H53.865v5.577a17.666 17.666 0 0 0 .587 5.137 2.4 2.4 0 0 0 2.5 2.055H59v1.761a49.573 49.573 0 0 0-6.9-.44 48.916 48.916 0 0 0-6.751.44v-1.76H47.7c1.761 0 2.642-1.174 2.642-3.669V35.079c0-3.963-.44-6.164-1.321-6.311-.294 0-.881-.147-1.614-.147h-2.055v-1.908c2.348.294 4.55.44 6.6.587 2.2-.147 4.4-.294 6.6-.587v1.908h-1.899a5.1 5.1 0 0 0-1.908.294 2.137 2.137 0 0 0-.881 1.321 15.143 15.143 0 0 0-.147 2.789v7.045H70.89v-5.138c0-3.963-.44-6.164-1.174-6.311-.294 0-.881-.147-1.614-.147h-2.055v-1.911c1.174.147 3.522.294 6.9.44 3.082-.147 5.284-.294 6.311-.44v1.908h-1.763a3.33 3.33 0 0 0-1.908.44c-.44.147-.587.44-.734 1.027a5.75 5.75 0 0 0-.294 1.908c0 .294.147.734.147 1.174v14.828a27.182 27.182 0 0 0 .147 3.669 6.235 6.235 0 0 0 .734 2.5 1.916 1.916 0 0 0 1.761 1.027H79.7v1.761c-2.935-.294-5.137-.44-6.458-.44-1.468 0-3.816.147-7.192.44v-1.912h2.35a2.285 2.285 0 0 0 2.055-.881 4.413 4.413 0 0 0 .587-2.642v-8.807zm11.3-13.943v-1.757c3.082.147 6.458.294 10.421.294s7.485-.147 10.567-.294l.294 6.751-1.761.147-.147-1.761a2.749 2.749 0 0 0-1.174-2.2 4.413 4.413 0 0 0-2.642-.587h-6.457v11.59l7.339-.147a3.33 3.33 0 0 0 1.908-.44c.44-.294.587-.734.587-1.614V37.28h1.614a20.723 20.723 0 0 1-.147 3.229c.147 2.2.147 4.11.294 5.577h-1.614v-2.054q0-1.761-2.2-1.761l-7.485-.147v7.926a10.443 10.443 0 0 0 .147 2.348 2.5 2.5 0 0 0 .881 1.468 2.869 2.869 0 0 0 2.055.587h5.13a3.636 3.636 0 0 0 3.376-1.614 11.258 11.258 0 0 0 1.027-3.963h1.761l-.881 7.926c-4.7-.294-8.072-.44-10.421-.44q-5.5 0-12.329.44v-1.909h2.789a2.836 2.836 0 0 0 2.5-.881 4.933 4.933 0 0 0 .587-2.789v-14.97a40.635 40.635 0 0 0-.294-4.843 3.643 3.643 0 0 0-1.174-2.5c-.147-.294-1.027-.44-2.2-.44h-2.35zm34.931-1.027a4.315 4.315 0 0 0-3.229 1.321 4.387 4.387 0 0 0-1.468 3.082q0 3.743 3.963 5.724l3.082 1.468a10.679 10.679 0 0 1 4.7 4.11 10.008 10.008 0 0 1 1.761 5.577 11.434 11.434 0 0 1-.881 4.55 8.424 8.424 0 0 1-2.789 3.229 9.849 9.849 0 0 1-4.843 1.174 13.011 13.011 0 0 1-4.4-.881 21.946 21.946 0 0 1-3.229-1.321v-3.522c0-1.614-.147-3.229-.294-4.843h2.2v2.055a6.777 6.777 0 0 0 1.614 4.4 5.461 5.461 0 0 0 4.11 1.908 5.313 5.313 0 0 0 3.961-1.461 5.42 5.42 0 0 0 1.614-3.963c-.147-2.642-1.614-4.7-4.7-6.311l-3.376-1.908c-3.522-2.055-5.284-4.843-5.284-8.219a8.485 8.485 0 0 1 1.174-4.11 6.882 6.882 0 0 1 2.789-2.642 8.563 8.563 0 0 1 3.816-.881 21.356 21.356 0 0 1 4.256.587 1.1 1.1 0 0 1 .734.147h.881v6.018h-1.908v-.44a11.514 11.514 0 0 0-.294-2.055 3.782 3.782 0 0 0-1.174-1.908 4.832 4.832 0 0 0-2.789-.881zm13.65 5.724l-1.761-.147v-6.457c3.669.294 8.219.44 13.65.587 5.871-.147 10.714-.294 14.677-.587v6.458h-1.761a9.775 9.775 0 0 0-.147-2.348c-.147-.44-.294-.881-.734-1.027a3.887 3.887 0 0 0-2.055-.44h-7.04v19.813a20.254 20.254 0 0 0 .294 3.669 2.922 2.922 0 0 0 1.174 1.761 7.062 7.062 0 0 0 3.082.587h1.761v1.761c-3.816-.294-6.6-.44-8.513-.44-1.468 0-4.11.147-7.632.44v-1.761h2.2a6.008 6.008 0 0 0 2.789-.44 1.41 1.41 0 0 0 .881-1.321 22.012 22.012 0 0 0 .147-3.816v-20.4h-8.806a2.448 2.448 0 0 0-2.055.734 7.756 7.756 0 0 0-.587 2.5.879.879 0 0 1 .437.874zm29.5-4.7v-1.754c3.082.147 6.458.294 10.421.294s7.485-.147 10.567-.294l.294 6.751-1.761.147-.147-1.761a2.749 2.749 0 0 0-1.174-2.2 4.413 4.413 0 0 0-2.642-.587h-6.458v11.59l7.339-.147a3.33 3.33 0 0 0 1.908-.44c.44-.294.587-.734.587-1.614V37.28h1.614a20.722 20.722 0 0 1-.147 3.229c.147 2.2.147 4.11.294 5.577h-1.761v-2.054q0-1.761-2.2-1.761l-7.485-.147v7.926a10.444 10.444 0 0 0 .147 2.348 2.5 2.5 0 0 0 .881 1.468 2.869 2.869 0 0 0 2.055.587h5.137a3.636 3.636 0 0 0 3.376-1.614 11.258 11.258 0 0 0 1.027-3.963h1.757l-.881 7.926c-4.7-.294-8.072-.44-10.421-.44q-5.5 0-12.329.44v-1.909h2.789a2.836 2.836 0 0 0 2.5-.881 4.933 4.933 0 0 0 .587-2.789v-14.97a40.635 40.635 0 0 0-.294-4.843 3.643 3.643 0 0 0-1.174-2.5c-.147-.294-1.027-.44-2.2-.44h-2.2zm38.747 13.65h-3.669v8.366a5.965 5.965 0 0 0 .734 3.082c.44.734 1.468 1.027 2.789 1.174h1.761v1.908a57.356 57.356 0 0 0-6.018-.44 16 16 0 0 0-2.5.147c-.881 0-1.908.147-3.229.294a18.225 18.225 0 0 1-2.2.147v-1.759h2.789a1.775 1.775 0 0 0 1.761-.881 7.219 7.219 0 0 0 .44-2.935V35.963c0-3.816-.44-6.018-1.174-6.751-.147-.294-.734-.44-1.468-.44h-2.055v-1.766a10.4 10.4 0 0 0 2.055.147H193a50.1 50.1 0 0 0 5.43-.294c.587 0 .881-.147 1.321-.147a9.687 9.687 0 0 1 3.963.881 6.425 6.425 0 0 1 2.935 2.642 6.624 6.624 0 0 1 1.027 3.669 8.177 8.177 0 0 1-1.174 4.4 7.336 7.336 0 0 1-3.522 2.789 76.109 76.109 0 0 0 12.769 18.346l-1.468.881a57.525 57.525 0 0 1-4.55-4.11c-1.468-1.614-2.935-3.229-4.256-4.843-1.321-1.761-2.642-3.229-3.522-4.7s-1.908-2.789-2.935-4.4zm-3.669-1.468a3.306 3.306 0 0 1 1.027.147c.44 0 .734 0 .881.147a9.817 9.817 0 0 0 3.816-.734 5.734 5.734 0 0 0 2.5-2.055 5.426 5.426 0 0 0 .881-3.082 6.663 6.663 0 0 0-.587-2.642 5.917 5.917 0 0 0-2.055-2.642 5.778 5.778 0 0 0-3.672-1.175h-2.94v12.04zM229.7 55.186l3.376-.294v1.761c-2.5-.147-4.99-.294-7.485-.294a71.265 71.265 0 0 0-8.219.44v-1.906h2.928a2.836 2.836 0 0 0 2.5-.881 4.876 4.876 0 0 0 .587-2.935V33.758c0-2.935-.44-4.7-1.321-4.99a5.415 5.415 0 0 0-2.5-.44h-2.346v-1.909c2.642.147 6.018.294 10.274.44a510.77 510.77 0 0 0 10.274-.44v6.751l-1.761.147-.147-1.761c-.147-1.908-1.321-2.789-3.816-2.789h-5.577v11.596l6.6-.147a3.147 3.147 0 0 0 1.761-.587 1.829 1.829 0 0 0 .587-1.614v-1.322h1.614a12.715 12.715 0 0 1-.147 2.642c.147 3.082.294 5.284.44 6.751h-1.902v-2.348q0-1.761-2.2-1.761l-6.751-.147v7.926a8.706 8.706 0 0 0 .734 3.376c.587 1.468 1.321 2.055 2.5 2.055zm11.15-26.565v-1.758c.734 0 2.935.147 6.458.294 3.522-.147 5.724-.294 6.6-.294v1.9h-2.055a2.576 2.576 0 0 0-2.2.881 6.376 6.376 0 0 0-.734 2.789c0 .147.147.294.147.587v14.974a24.755 24.755 0 0 0 .44 5.137 2.138 2.138 0 0 0 2.348 1.908h2.348V56.8a49.756 49.756 0 0 0-13.209 0v-1.907h2.2c1.761 0 2.642-1.174 2.642-3.669V34.932a38.561 38.561 0 0 0-.147-4.4c-.147-1.174-.44-1.761-1.027-1.908-.294 0-.881-.147-1.761-.147h-2.05zm16.291 0v-1.758c3.082.147 6.458.294 10.421.294s7.485-.147 10.567-.294l.294 6.751-1.761.147-.147-1.761a2.749 2.749 0 0 0-1.174-2.2 4.413 4.413 0 0 0-2.642-.587h-6.458v11.59l7.339-.147a3.33 3.33 0 0 0 1.908-.44c.44-.294.587-.734.587-1.614V37.28h1.615a20.72 20.72 0 0 1-.147 3.229c.147 2.2.147 4.11.294 5.577h-1.761v-2.054q0-1.761-2.2-1.761l-7.485-.147v7.926a10.442 10.442 0 0 0 .147 2.348 2.5 2.5 0 0 0 .881 1.468 2.869 2.869 0 0 0 2.055.587h5.137a3.636 3.636 0 0 0 3.376-1.614 11.257 11.257 0 0 0 1.027-3.963h1.761l-.881 7.926c-4.7-.294-8.072-.44-10.421-.44q-5.5 0-12.329.44v-1.909h2.789a2.836 2.836 0 0 0 2.5-.881 4.933 4.933 0 0 0 .587-2.789v-14.97a40.638 40.638 0 0 0-.294-4.843 3.643 3.643 0 0 0-1.174-2.5c-.147-.294-1.027-.44-2.2-.44h-2.2zm48.581 24.8a5.2 5.2 0 0 0 1.321-2.348 10.223 10.223 0 0 0 .44-2.055l2.055.734a32 32 0 0 0-2.055 7.045c-3.816-.147-7.926-.294-12.475-.294-3.963 0-7.485.147-10.567.294v-1.758h2.059a2.576 2.576 0 0 0 2.2-.876 4.639 4.639 0 0 0 .587-2.789V34.932a26.081 26.081 0 0 0-.147-3.669 3.808 3.808 0 0 0-.881-2.055 4.226 4.226 0 0 0-2.642-.587h-1.027v-1.908c.881.147 3.229.294 6.9.44 3.816-.147 6.018-.294 6.9-.294v1.904h-2.348c-2.2 0-3.229 1.468-3.229 4.4v14.978a17.824 17.824 0 0 0 .294 3.376 3.279 3.279 0 0 0 1.027 1.761 3.348 3.348 0 0 0 1.761.881 34.115 34.115 0 0 0 4.843.734c2.5-.147 4.256-.587 4.99-1.468zm7.779-24.8h-.734v-1.758c1.908.147 3.816.294 5.577.294 1.027 0 2.5-.147 4.55-.147 2.055-.147 3.963-.147 5.724-.147a19.733 19.733 0 0 1 6.751 1.174 14.02 14.02 0 0 1 4.843 3.229 13.4 13.4 0 0 1 2.935 4.843 16.213 16.213 0 0 1 1.027 6.018 19.881 19.881 0 0 1-.881 6.018 12.182 12.182 0 0 1-2.935 4.99 12.564 12.564 0 0 1-4.843 3.376 16.315 16.315 0 0 1-6.751 1.174c-1.027 0-2.348-.147-3.816-.294s-2.935-.294-4.4-.587c-1.468-.147-2.789-.294-3.816-.294a33.546 33.546 0 0 0-3.669.294v-1.911h2.348a2.27 2.27 0 0 0 2.5-2.2v-16.73a35.788 35.788 0 0 0-.294-4.99 2.623 2.623 0 0 0-1.027-1.908 9.142 9.142 0 0 0-3.082-.44zm7.779.147v21.134a5.416 5.416 0 0 0 1.62 4.261c1.174 1.027 2.935 1.468 5.431 1.468a13.244 13.244 0 0 0 5.137-1.174 8.629 8.629 0 0 0 3.522-2.935 9.661 9.661 0 0 0 1.908-4.11 25.484 25.484 0 0 0 .734-4.99 16.842 16.842 0 0 0-.881-5.431 12.672 12.672 0 0 0-6.9-7.632 13.345 13.345 0 0 0-5.43-1.174h-1.174l-3.963.587zm33.61-1.174a4.315 4.315 0 0 0-3.229 1.321 4.387 4.387 0 0 0-1.468 3.082q0 3.743 3.963 5.724l3.082 1.468a10.68 10.68 0 0 1 4.7 4.11 10.008 10.008 0 0 1 1.761 5.577 11.434 11.434 0 0 1-.881 4.55 8.424 8.424 0 0 1-2.789 3.229 9.849 9.849 0 0 1-4.843 1.174 13.012 13.012 0 0 1-4.4-.881 21.948 21.948 0 0 1-3.229-1.321v-3.523c0-1.614-.147-3.229-.294-4.843h2.2v2.055a6.777 6.777 0 0 0 1.615 4.4 5.2 5.2 0 0 0 4.11 1.908 5.313 5.313 0 0 0 3.959-1.461 5.42 5.42 0 0 0 1.615-3.963c-.147-2.642-1.615-4.7-4.7-6.311l-3.376-1.908c-3.522-2.055-5.284-4.843-5.284-8.219a8.485 8.485 0 0 1 1.174-4.11 8.018 8.018 0 0 1 2.789-2.642 8.563 8.563 0 0 1 3.816-.881 21.355 21.355 0 0 1 4.256.587 1.1 1.1 0 0 1 .734.147h.881v6.018h-1.908v-.44a11.514 11.514 0 0 0-.294-2.055 3.783 3.783 0 0 0-1.174-1.908 4.832 4.832 0 0 0-2.789-.881z" fill="#282526"/></g></svg>