<?xml version="1.0" encoding="UTF-8"?> <svg xmlns="http://www.w3.org/2000/svg" viewBox="0 0 70.87 70.87"><defs><style>.cls-1{fill:#1e1e1c;}.cls-2{fill:none;}</style></defs><title>Asset 3</title><g id="Layer_2" data-name="Layer 2"><g id="Layer_1-2" data-name="Layer 1"><path class="cls-1" d="M57.79,25.68H13.08V19.11H57.79Zm-43.71-1H56.79V20.11H14.08Z"></path><path class="cls-1" d="M57.79,52.15H13.08V47.76H57.79Zm-43.71-1H56.79V48.76H14.08Z"></path><path class="cls-1" d="M57.79,48.76H13.08V24.68H57.79Zm-43.71-1H56.79V25.68H14.08Z"></path><path class="cls-1" d="M21.61,20.11H18.39v-5.4h3.22Zm-2.22-1h1.22v-3.4H19.39Z"></path><path class="cls-1" d="M52.47,20.11H49.25v-5.4h3.22Zm-2.22-1h1.22v-3.4H50.25Z"></path><path class="cls-1" d="M22.85,32.54H18.39V28.08h4.46Zm-3.46-1h2.46V29.08H19.39Z"></path><path class="cls-1" d="M30.26,32.54H25.8V28.08h4.46Zm-3.46-1h2.46V29.08H26.8Z"></path><path class="cls-1" d="M37.66,32.54H33.21V28.08h4.45Zm-3.45-1h2.45V29.08H34.21Z"></path><path class="cls-1" d="M45.07,32.54H40.61V28.08h4.46Zm-3.46-1h2.46V29.08H41.61Z"></path><path class="cls-1" d="M52.47,32.54H48V28.08h4.45Zm-3.45-1h2.45V29.08H49Z"></path><path class="cls-1" d="M22.85,39H18.39V34.49h4.46Zm-3.46-1h2.46V35.49H19.39Z"></path><path class="cls-1" d="M30.26,39H25.8V34.49h4.46ZM26.8,38h2.46V35.49H26.8Z"></path><path class="cls-1" d="M37.66,39H33.21V34.49h4.45Zm-3.45-1h2.45V35.49H34.21Z"></path><path class="cls-1" d="M45.07,39H40.61V34.49h4.46Zm-3.46-1h2.46V35.49H41.61Z"></path><path class="cls-1" d="M52.47,39H48V34.49h4.45ZM49,38h2.45V35.49H49Z"></path><path class="cls-1" d="M22.85,45.36H18.39V40.91h4.46Zm-3.46-1h2.46V41.91H19.39Z"></path><path class="cls-1" d="M30.26,45.36H25.8V40.91h4.46Zm-3.46-1h2.46V41.91H26.8Z"></path><path class="cls-1" d="M37.66,45.36H33.21V40.91h4.45Zm-3.45-1h2.45V41.91H34.21Z"></path><path class="cls-1" d="M45.07,45.36H40.61V40.91h4.46Zm-3.46-1h2.46V41.91H41.61Z"></path><path class="cls-1" d="M52.47,45.36H48V40.91h4.45Zm-3.45-1h2.45V41.91H49Z"></path><rect class="cls-2" width="70.87" height="70.87"></rect></g></g></svg> 