<?xml version="1.0" encoding="UTF-8"?> <svg xmlns="http://www.w3.org/2000/svg" viewBox="0 0 70.87 70.87"><defs><style>.cls-1{fill:#1e1e1c;}.cls-2{fill:none;}</style></defs><title>Asset 2</title><g id="Layer_2" data-name="Layer 2"><g id="Layer_1-2" data-name="Layer 1"><polygon class="cls-1" points="49.84 47.12 26.85 47.12 26.85 46.12 48.84 46.12 48.84 21.03 15.76 21.03 15.76 46.12 19.41 46.12 19.41 47.12 14.76 47.12 14.76 20.03 49.84 20.03 49.84 47.12"></polygon><polygon class="cls-1" points="64.66 47.12 60.47 47.12 60.47 46.12 63.66 46.12 63.66 34.49 60.49 27.3 49.84 27.3 49.84 46.12 53.03 46.12 53.03 47.12 48.84 47.12 48.84 26.3 61.15 26.3 64.66 34.39 64.66 47.12"></polygon><path class="cls-1" d="M23.13,50.84a4.22,4.22,0,1,1,4.22-4.22A4.22,4.22,0,0,1,23.13,50.84Zm0-7.44a3.22,3.22,0,1,0,3.22,3.22A3.23,3.23,0,0,0,23.13,43.4Z"></path><path class="cls-1" d="M23.13,48.72a2.1,2.1,0,1,1,2.1-2.1A2.1,2.1,0,0,1,23.13,48.72Zm0-3.2a1.1,1.1,0,1,0,1.1,1.1A1.11,1.11,0,0,0,23.13,45.52Z"></path><path class="cls-1" d="M56.75,48.72a2.1,2.1,0,1,1,2.1-2.1A2.1,2.1,0,0,1,56.75,48.72Zm0-3.2a1.1,1.1,0,1,0,1.1,1.1A1.1,1.1,0,0,0,56.75,45.52Z"></path><path class="cls-1" d="M56.75,50.84A4.22,4.22,0,1,1,61,46.62,4.23,4.23,0,0,1,56.75,50.84Zm0-7.44A3.22,3.22,0,1,0,60,46.62,3.23,3.23,0,0,0,56.75,43.4Z"></path><rect class="cls-1" x="8.62" y="37.57" width="3.71" height="1"></rect><rect class="cls-1" x="6.2" y="31.88" width="6.12" height="1"></rect><rect class="cls-1" x="53.47" y="31.88" width="6.57" height="1"></rect><rect class="cls-1" x="4.26" y="26.2" width="8.06" height="1"></rect><rect class="cls-1" x="26.23" y="44.07" width="23.11" height="1"></rect><rect class="cls-1" x="15.26" y="44.07" width="4.77" height="1"></rect><polygon class="cls-1" points="28.68 38.82 24.12 34.25 24.82 33.54 28.68 37.4 39.78 26.31 40.49 27.01 28.68 38.82"></polygon><rect class="cls-2" width="70.87" height="70.87"></rect></g></g></svg> 